<svg id="svg" version="1.1" xmlns="http://www.w3.org/2000/svg" xmlns:xlink="http://www.w3.org/1999/xlink" width="400" height="74.96339677891655" viewBox="0, 0, 400,74.96339677891655"><g id="svgg"><path id="path0" d="M237.000 0.583 C 237.000 0.793,236.641 0.833,234.751 0.833 C 232.683 0.833,232.486 0.860,232.295 1.167 C 232.134 1.424,231.906 1.500,231.293 1.500 C 230.699 1.500,230.500 1.563,230.500 1.750 C 230.500 1.940,230.295 2.000,229.651 2.000 C 228.942 2.000,228.788 2.055,228.715 2.333 C 228.643 2.609,228.488 2.667,227.814 2.667 C 227.202 2.667,227.000 2.729,227.000 2.917 C 227.000 3.056,226.852 3.167,226.667 3.167 C 226.444 3.167,226.333 3.278,226.333 3.500 C 226.333 3.770,226.222 3.833,225.750 3.833 C 225.343 3.833,225.167 3.909,225.167 4.083 C 225.167 4.221,225.023 4.333,224.847 4.333 C 224.350 4.333,224.000 4.513,224.000 4.768 C 224.000 4.896,223.887 5.000,223.750 5.000 C 223.612 5.000,223.500 5.112,223.500 5.250 C 223.500 5.389,223.352 5.500,223.167 5.500 C 222.944 5.500,222.833 5.611,222.833 5.833 C 222.833 6.019,222.722 6.167,222.583 6.167 C 222.446 6.167,222.333 6.279,222.333 6.417 C 222.333 6.556,222.185 6.667,222.000 6.667 C 221.778 6.667,221.667 6.778,221.667 7.000 C 221.667 7.185,221.556 7.333,221.417 7.333 C 221.279 7.333,221.167 7.446,221.167 7.583 C 221.167 7.721,221.047 7.833,220.901 7.833 C 220.755 7.833,220.596 7.983,220.548 8.167 C 220.500 8.350,220.366 8.500,220.249 8.500 C 220.133 8.500,219.988 8.762,219.928 9.083 C 219.862 9.433,219.721 9.667,219.576 9.667 C 219.442 9.667,219.333 9.817,219.333 10.000 C 219.333 10.183,219.224 10.333,219.091 10.333 C 218.946 10.333,218.805 10.567,218.739 10.917 C 218.676 11.251,218.531 11.500,218.398 11.500 C 218.232 11.500,218.167 11.731,218.167 12.314 C 218.167 12.988,218.109 13.143,217.833 13.215 C 217.561 13.286,217.500 13.442,217.500 14.073 C 217.500 14.604,217.422 14.874,217.250 14.940 C 217.056 15.014,217.000 15.343,217.000 16.415 C 217.000 17.654,216.966 17.803,216.667 17.882 C 216.346 17.965,216.333 18.109,216.333 21.562 C 216.333 24.984,216.349 25.163,216.667 25.333 C 216.957 25.489,217.000 25.682,217.000 26.831 C 217.000 27.763,217.066 28.189,217.226 28.283 C 217.350 28.357,217.494 28.748,217.547 29.153 C 217.601 29.568,217.757 29.954,217.905 30.037 C 218.052 30.119,218.167 30.402,218.167 30.680 C 218.167 30.954,218.272 31.217,218.400 31.267 C 218.529 31.316,218.682 31.614,218.741 31.928 C 218.805 32.268,218.947 32.500,219.091 32.500 C 219.237 32.500,219.333 32.662,219.333 32.909 C 219.333 33.307,220.022 34.167,220.341 34.167 C 220.428 34.167,220.500 34.317,220.500 34.500 C 220.500 34.722,220.611 34.833,220.833 34.833 C 221.085 34.833,221.167 34.945,221.170 35.292 C 221.172 35.746,221.783 36.500,222.148 36.500 C 222.250 36.500,222.335 36.594,222.336 36.708 C 222.341 37.067,223.110 37.667,223.565 37.667 C 223.889 37.667,224.000 37.752,224.000 38.000 C 224.000 38.222,224.111 38.333,224.333 38.333 C 224.519 38.333,224.667 38.444,224.667 38.583 C 224.667 38.721,224.779 38.833,224.917 38.833 C 225.054 38.833,225.167 38.938,225.167 39.066 C 225.167 39.320,225.517 39.500,226.014 39.500 C 226.189 39.500,226.333 39.612,226.333 39.750 C 226.333 39.923,226.507 40.000,226.897 40.000 C 227.321 40.000,227.483 40.083,227.548 40.333 C 227.611 40.573,227.776 40.667,228.133 40.667 C 228.422 40.667,228.671 40.772,228.727 40.917 C 228.795 41.093,229.070 41.167,229.661 41.167 C 230.389 41.167,230.500 41.211,230.500 41.500 C 230.500 41.802,230.611 41.833,231.667 41.833 C 232.593 41.833,232.833 41.885,232.833 42.083 C 232.833 42.304,235.183 42.333,252.981 42.333 C 272.988 42.333,273.128 42.336,273.215 42.667 C 273.295 42.972,273.442 43.000,274.984 43.000 C 276.369 43.000,276.667 43.044,276.667 43.250 C 276.667 43.424,276.841 43.500,277.239 43.500 C 277.664 43.500,277.838 43.585,277.917 43.833 C 277.990 44.063,278.169 44.167,278.493 44.167 C 278.758 44.167,279.006 44.276,279.060 44.417 C 279.113 44.554,279.271 44.667,279.411 44.667 C 279.552 44.667,279.667 44.752,279.667 44.856 C 279.667 45.078,280.446 45.833,280.675 45.833 C 280.762 45.833,280.833 45.983,280.833 46.167 C 280.833 46.350,280.937 46.500,281.065 46.500 C 281.197 46.500,281.343 46.749,281.406 47.083 C 281.471 47.433,281.612 47.667,281.758 47.667 C 281.937 47.667,282.000 47.882,282.000 48.500 C 282.000 49.130,282.061 49.333,282.250 49.333 C 282.459 49.333,282.500 49.676,282.500 51.417 C 282.500 53.157,282.459 53.500,282.250 53.500 C 282.059 53.500,282.000 53.711,282.000 54.397 C 282.000 55.154,281.948 55.308,281.667 55.382 C 281.424 55.445,281.333 55.609,281.333 55.984 C 281.333 56.332,281.252 56.500,281.083 56.500 C 280.946 56.500,280.833 56.604,280.833 56.731 C 280.833 56.857,280.683 57.000,280.500 57.048 C 280.317 57.096,280.167 57.255,280.167 57.401 C 280.167 57.547,280.054 57.667,279.917 57.667 C 279.779 57.667,279.667 57.779,279.667 57.917 C 279.667 58.054,279.547 58.167,279.401 58.167 C 279.255 58.167,279.096 58.317,279.048 58.500 C 278.983 58.750,278.821 58.833,278.397 58.833 C 278.007 58.833,277.833 58.910,277.833 59.083 C 277.833 59.258,277.657 59.333,277.250 59.333 C 276.778 59.333,276.667 59.397,276.667 59.667 C 276.667 59.974,276.556 60.000,275.250 60.000 C 274.103 60.000,273.833 60.048,273.833 60.250 C 273.833 60.470,270.554 60.504,245.708 60.541 L 217.583 60.583 217.583 67.250 L 217.583 73.917 247.917 73.962 C 278.874 74.009,279.000 74.007,279.000 73.580 C 279.000 73.386,279.247 73.333,280.167 73.333 C 281.093 73.333,281.333 73.282,281.333 73.083 C 281.333 72.894,281.539 72.833,282.182 72.833 C 282.891 72.833,283.046 72.778,283.118 72.500 C 283.184 72.250,283.346 72.167,283.769 72.167 C 284.160 72.167,284.333 72.090,284.333 71.917 C 284.333 71.742,284.509 71.667,284.917 71.667 C 285.389 71.667,285.500 71.603,285.500 71.333 C 285.500 71.063,285.611 71.000,286.083 71.000 C 286.491 71.000,286.667 70.925,286.667 70.750 C 286.667 70.612,286.811 70.500,286.986 70.500 C 287.483 70.500,287.833 70.320,287.833 70.066 C 287.833 69.938,287.938 69.833,288.066 69.833 C 288.193 69.833,288.341 69.721,288.394 69.583 C 288.446 69.446,288.604 69.333,288.745 69.333 C 288.889 69.333,289.000 69.188,289.000 69.000 C 289.000 68.778,289.111 68.667,289.333 68.667 C 289.519 68.667,289.667 68.556,289.667 68.417 C 289.667 68.279,289.779 68.167,289.917 68.167 C 290.056 68.167,290.167 68.019,290.167 67.833 C 290.167 67.611,290.278 67.500,290.500 67.500 C 290.685 67.500,290.833 67.389,290.833 67.250 C 290.833 67.112,290.946 67.000,291.083 67.000 C 291.221 67.000,291.333 66.859,291.333 66.686 C 291.333 66.512,291.482 66.333,291.667 66.285 C 291.909 66.222,292.000 66.058,292.000 65.682 C 292.000 65.335,292.082 65.167,292.250 65.167 C 292.387 65.167,292.500 65.059,292.500 64.928 C 292.500 64.797,292.650 64.642,292.833 64.583 C 293.068 64.509,293.167 64.331,293.167 63.984 C 293.167 63.698,293.272 63.449,293.417 63.394 C 293.568 63.335,293.667 63.083,293.667 62.752 C 293.667 62.346,293.752 62.183,294.000 62.118 C 294.272 62.047,294.333 61.891,294.333 61.266 C 294.333 60.696,294.397 60.500,294.583 60.500 C 294.781 60.500,294.833 60.261,294.833 59.353 C 294.833 58.346,294.874 58.195,295.167 58.118 C 295.492 58.033,295.500 57.891,295.500 52.027 C 295.500 46.169,295.492 46.020,295.167 45.917 C 294.879 45.825,294.833 45.664,294.833 44.734 C 294.833 43.930,294.770 43.632,294.583 43.560 C 294.431 43.502,294.333 43.249,294.333 42.912 C 294.333 42.195,294.188 41.833,293.899 41.833 C 293.745 41.833,293.667 41.637,293.667 41.250 C 293.667 40.843,293.591 40.667,293.417 40.667 C 293.279 40.667,293.167 40.523,293.167 40.347 C 293.167 39.850,292.987 39.500,292.732 39.500 C 292.604 39.500,292.500 39.350,292.500 39.167 C 292.500 38.981,292.389 38.833,292.250 38.833 C 292.111 38.833,292.000 38.685,292.000 38.500 C 292.000 38.317,291.850 38.017,291.667 37.833 C 291.483 37.650,291.333 37.425,291.333 37.333 C 291.333 37.242,291.221 37.167,291.083 37.167 C 290.946 37.167,290.833 37.047,290.833 36.901 C 290.833 36.755,290.683 36.596,290.500 36.548 C 290.317 36.500,290.167 36.357,290.167 36.231 C 290.167 36.104,290.059 36.000,289.928 36.000 C 289.797 36.000,289.642 35.850,289.583 35.667 C 289.525 35.483,289.370 35.333,289.239 35.333 C 289.107 35.333,289.000 35.221,289.000 35.083 C 289.000 34.909,288.824 34.833,288.417 34.833 C 287.944 34.833,287.833 34.770,287.833 34.500 C 287.833 34.278,287.722 34.167,287.500 34.167 C 287.315 34.167,287.167 34.056,287.167 33.917 C 287.167 33.744,286.993 33.667,286.603 33.667 C 286.179 33.667,286.017 33.584,285.952 33.333 C 285.880 33.061,285.724 33.000,285.099 33.000 C 284.530 33.000,284.333 32.936,284.333 32.750 C 284.333 32.577,284.160 32.500,283.769 32.500 C 283.346 32.500,283.184 32.417,283.118 32.167 C 283.042 31.876,282.891 31.833,281.932 31.833 C 281.067 31.833,280.833 31.780,280.833 31.583 C 280.833 31.374,280.491 31.333,278.750 31.333 C 276.778 31.333,276.667 31.316,276.667 31.000 C 276.667 30.669,276.556 30.667,256.750 30.667 C 239.157 30.667,236.833 30.637,236.833 30.417 C 236.833 30.229,236.632 30.167,236.019 30.167 C 235.346 30.167,235.191 30.109,235.118 29.833 C 235.055 29.591,234.891 29.500,234.516 29.500 C 234.168 29.500,234.000 29.418,234.000 29.250 C 234.000 29.111,233.852 29.000,233.667 29.000 C 233.444 29.000,233.333 28.889,233.333 28.667 C 233.333 28.481,233.222 28.333,233.083 28.333 C 232.946 28.333,232.833 28.221,232.833 28.083 C 232.833 27.944,232.685 27.833,232.500 27.833 C 232.230 27.833,232.167 27.722,232.167 27.250 C 232.167 26.843,232.091 26.667,231.917 26.667 C 231.742 26.667,231.667 26.491,231.667 26.083 C 231.667 25.611,231.603 25.500,231.333 25.500 C 231.012 25.500,231.000 25.389,231.000 22.500 C 231.000 19.611,231.012 19.500,231.333 19.500 C 231.603 19.500,231.667 19.389,231.667 18.917 C 231.667 18.509,231.742 18.333,231.917 18.333 C 232.054 18.333,232.167 18.221,232.167 18.083 C 232.167 17.946,232.271 17.833,232.399 17.833 C 232.654 17.833,232.833 17.483,232.833 16.986 C 232.833 16.811,232.946 16.667,233.083 16.667 C 233.222 16.667,233.333 16.519,233.333 16.333 C 233.333 16.063,233.444 16.000,233.917 16.000 C 234.324 16.000,234.500 15.925,234.500 15.750 C 234.500 15.582,234.668 15.500,235.016 15.500 C 235.391 15.500,235.555 15.409,235.618 15.167 C 235.692 14.885,235.846 14.833,236.603 14.833 C 237.289 14.833,237.500 14.775,237.500 14.583 C 237.500 14.362,240.639 14.333,264.752 14.333 L 292.004 14.333 291.960 7.375 L 291.917 0.417 264.458 0.375 C 240.119 0.337,237.000 0.361,237.000 0.583 M300.778 0.444 C 300.439 0.783,300.713 2.667,301.101 2.667 C 301.240 2.667,301.333 2.841,301.333 3.102 C 301.333 3.556,301.933 4.325,302.292 4.330 C 302.418 4.332,302.500 4.563,302.500 4.917 C 302.500 5.316,302.576 5.500,302.742 5.500 C 302.888 5.500,303.029 5.734,303.094 6.083 C 303.157 6.417,303.303 6.667,303.435 6.667 C 303.563 6.667,303.667 6.817,303.667 7.000 C 303.667 7.183,303.771 7.333,303.899 7.333 C 304.154 7.333,304.333 7.684,304.333 8.180 C 304.333 8.356,304.446 8.500,304.583 8.500 C 304.752 8.500,304.833 8.668,304.833 9.016 C 304.833 9.391,304.924 9.555,305.167 9.618 C 305.350 9.666,305.500 9.809,305.500 9.936 C 305.500 10.063,305.612 10.167,305.750 10.167 C 305.925 10.167,306.000 10.343,306.000 10.750 C 306.000 11.222,306.063 11.333,306.333 11.333 C 306.603 11.333,306.667 11.444,306.667 11.917 C 306.667 12.324,306.742 12.500,306.917 12.500 C 307.056 12.500,307.167 12.648,307.167 12.833 C 307.167 13.056,307.278 13.167,307.500 13.167 C 307.770 13.167,307.833 13.278,307.833 13.750 C 307.833 14.157,307.909 14.333,308.083 14.333 C 308.252 14.333,308.333 14.502,308.333 14.849 C 308.333 15.224,308.424 15.388,308.667 15.452 C 308.850 15.500,309.000 15.643,309.000 15.769 C 309.000 15.896,309.112 16.000,309.250 16.000 C 309.425 16.000,309.500 16.176,309.500 16.583 C 309.500 17.056,309.563 17.167,309.833 17.167 C 310.103 17.167,310.167 17.278,310.167 17.750 C 310.167 18.157,310.242 18.333,310.417 18.333 C 310.556 18.333,310.667 18.481,310.667 18.667 C 310.667 18.889,310.778 19.000,311.000 19.000 C 311.270 19.000,311.333 19.111,311.333 19.583 C 311.333 19.991,311.409 20.167,311.583 20.167 C 311.752 20.167,311.833 20.335,311.833 20.682 C 311.833 21.058,311.924 21.222,312.167 21.285 C 312.350 21.333,312.500 21.478,312.500 21.608 C 312.500 21.738,312.612 21.887,312.750 21.940 C 312.893 21.994,313.000 22.243,313.000 22.518 C 313.000 22.889,313.077 23.000,313.333 23.000 C 313.603 23.000,313.667 23.111,313.667 23.583 C 313.667 23.991,313.742 24.167,313.917 24.167 C 314.056 24.167,314.167 24.315,314.167 24.500 C 314.167 24.722,314.278 24.833,314.500 24.833 C 314.770 24.833,314.833 24.944,314.833 25.417 C 314.833 25.824,314.909 26.000,315.083 26.000 C 315.221 26.000,315.333 26.144,315.333 26.320 C 315.333 26.816,315.513 27.167,315.768 27.167 C 315.896 27.167,316.000 27.317,316.000 27.500 C 316.000 27.685,316.111 27.833,316.250 27.833 C 316.415 27.833,316.500 27.999,316.500 28.322 C 316.500 28.664,316.600 28.843,316.833 28.917 C 317.067 28.991,317.167 29.169,317.167 29.511 C 317.167 29.835,317.251 30.000,317.417 30.000 C 317.556 30.000,317.667 30.148,317.667 30.333 C 317.667 30.556,317.778 30.667,318.000 30.667 C 318.270 30.667,318.333 30.778,318.333 31.250 C 318.333 31.657,318.409 31.833,318.583 31.833 C 318.721 31.833,318.833 31.977,318.833 32.153 C 318.833 32.650,319.013 33.000,319.268 33.000 C 319.396 33.000,319.500 33.150,319.500 33.333 C 319.500 33.519,319.611 33.667,319.750 33.667 C 319.887 33.667,320.000 33.811,320.000 33.986 C 320.000 34.483,320.180 34.833,320.434 34.833 C 320.579 34.833,320.667 35.014,320.667 35.316 C 320.667 35.590,320.774 35.839,320.917 35.894 C 321.054 35.946,321.167 36.104,321.167 36.245 C 321.167 36.389,321.312 36.500,321.500 36.500 C 321.770 36.500,321.833 36.611,321.833 37.083 C 321.833 37.491,321.909 37.667,322.083 37.667 C 322.221 37.667,322.333 37.786,322.333 37.932 C 322.333 38.078,322.483 38.237,322.667 38.285 C 322.917 38.351,323.000 38.512,323.000 38.936 C 323.000 39.306,323.080 39.500,323.231 39.500 C 323.364 39.500,323.510 39.749,323.572 40.083 C 323.638 40.433,323.779 40.667,323.924 40.667 C 324.058 40.667,324.167 40.779,324.167 40.917 C 324.167 41.054,324.271 41.167,324.398 41.167 C 324.531 41.167,324.676 41.416,324.739 41.750 C 324.805 42.099,324.946 42.333,325.091 42.333 C 325.257 42.333,325.333 42.517,325.333 42.917 C 325.333 43.389,325.397 43.500,325.667 43.500 C 325.889 43.500,326.000 43.611,326.000 43.833 C 326.000 44.019,326.111 44.167,326.250 44.167 C 326.425 44.167,326.500 44.343,326.500 44.750 C 326.500 45.222,326.563 45.333,326.833 45.333 C 327.103 45.333,327.167 45.444,327.167 45.917 C 327.167 46.324,327.242 46.500,327.417 46.500 C 327.554 46.500,327.667 46.612,327.667 46.750 C 327.667 46.889,327.815 47.000,328.000 47.000 C 328.270 47.000,328.333 47.111,328.333 47.583 C 328.333 47.991,328.409 48.167,328.583 48.167 C 328.758 48.167,328.833 48.343,328.833 48.750 C 328.833 49.222,328.897 49.333,329.167 49.333 C 329.389 49.333,329.500 49.444,329.500 49.667 C 329.500 49.852,329.611 50.000,329.750 50.000 C 329.925 50.000,330.000 50.176,330.000 50.583 C 330.000 51.056,330.063 51.167,330.333 51.167 C 330.603 51.167,330.667 51.278,330.667 51.750 C 330.667 52.157,330.742 52.333,330.917 52.333 C 331.054 52.333,331.167 52.446,331.167 52.583 C 331.167 52.722,331.315 52.833,331.500 52.833 C 331.770 52.833,331.833 52.944,331.833 53.417 C 331.833 53.824,331.909 54.000,332.083 54.000 C 332.258 54.000,332.333 54.176,332.333 54.583 C 332.333 55.056,332.397 55.167,332.667 55.167 C 332.889 55.167,333.000 55.278,333.000 55.500 C 333.000 55.685,333.111 55.833,333.250 55.833 C 333.425 55.833,333.500 56.009,333.500 56.417 C 333.500 56.889,333.563 57.000,333.833 57.000 C 334.103 57.000,334.167 57.111,334.167 57.583 C 334.167 57.991,334.242 58.167,334.417 58.167 C 334.554 58.167,334.667 58.274,334.667 58.405 C 334.667 58.537,334.817 58.692,335.000 58.750 C 335.230 58.823,335.333 59.002,335.333 59.327 C 335.333 59.592,335.443 59.840,335.583 59.894 C 335.726 59.949,335.833 60.197,335.833 60.475 C 335.833 60.821,335.930 60.986,336.167 61.048 C 336.350 61.096,336.500 61.255,336.500 61.401 C 336.500 61.547,336.612 61.667,336.750 61.667 C 336.925 61.667,337.000 61.843,337.000 62.250 C 337.000 62.722,337.063 62.833,337.333 62.833 C 337.603 62.833,337.667 62.944,337.667 63.417 C 337.667 63.824,337.742 64.000,337.917 64.000 C 338.054 64.000,338.167 64.120,338.167 64.266 C 338.167 64.412,338.317 64.570,338.500 64.618 C 338.737 64.680,338.833 64.846,338.833 65.191 C 338.833 65.469,338.940 65.718,339.083 65.773 C 339.224 65.827,339.333 66.075,339.333 66.340 C 339.333 66.664,339.437 66.844,339.667 66.917 C 339.850 66.975,340.000 67.130,340.000 67.261 C 340.000 67.393,340.112 67.500,340.250 67.500 C 340.418 67.500,340.500 67.668,340.500 68.016 C 340.500 68.391,340.591 68.555,340.833 68.618 C 341.084 68.684,341.167 68.846,341.167 69.269 C 341.167 69.660,341.244 69.833,341.417 69.833 C 341.554 69.833,341.667 69.953,341.667 70.099 C 341.667 70.245,341.817 70.404,342.000 70.452 C 342.250 70.517,342.333 70.679,342.333 71.103 C 342.333 71.493,342.410 71.667,342.583 71.667 C 342.721 71.667,342.833 71.779,342.833 71.917 C 342.833 72.054,342.979 72.167,343.156 72.167 C 343.398 72.167,343.492 72.302,343.531 72.708 C 343.577 73.185,343.649 73.256,344.125 73.302 C 344.532 73.341,344.667 73.435,344.667 73.677 C 344.667 73.856,344.781 74.000,344.922 74.000 C 345.062 74.000,345.220 74.113,345.273 74.250 C 345.332 74.404,345.586 74.500,345.934 74.500 C 346.246 74.500,346.500 74.575,346.500 74.667 C 346.500 74.771,347.472 74.833,349.083 74.833 C 350.694 74.833,351.667 74.771,351.667 74.667 C 351.667 74.575,351.929 74.500,352.250 74.500 C 352.636 74.500,352.833 74.422,352.833 74.269 C 352.833 74.143,352.983 74.000,353.167 73.952 C 353.350 73.904,353.500 73.745,353.500 73.599 C 353.500 73.453,353.613 73.333,353.750 73.333 C 353.887 73.333,354.000 73.230,354.000 73.103 C 354.000 72.976,354.150 72.833,354.333 72.785 C 354.517 72.737,354.667 72.578,354.667 72.432 C 354.667 72.286,354.779 72.167,354.917 72.167 C 355.054 72.167,355.167 72.071,355.167 71.954 C 355.167 71.837,355.317 71.612,355.500 71.455 C 355.683 71.298,355.833 71.027,355.833 70.853 C 355.833 70.678,355.946 70.492,356.083 70.440 C 356.226 70.385,356.333 70.136,356.333 69.858 C 356.333 69.512,356.430 69.347,356.667 69.285 C 356.850 69.237,357.000 69.078,357.000 68.932 C 357.000 68.786,357.113 68.667,357.250 68.667 C 357.423 68.667,357.500 68.493,357.500 68.103 C 357.500 67.679,357.583 67.517,357.833 67.452 C 358.076 67.388,358.167 67.224,358.167 66.849 C 358.167 66.502,358.248 66.333,358.417 66.333 C 358.554 66.333,358.667 66.192,358.667 66.019 C 358.667 65.846,358.816 65.667,359.000 65.618 C 359.227 65.559,359.333 65.391,359.333 65.094 C 359.333 64.853,359.446 64.613,359.583 64.560 C 359.722 64.507,359.833 64.259,359.833 64.002 C 359.833 63.679,359.934 63.512,360.167 63.452 C 360.350 63.404,360.500 63.245,360.500 63.099 C 360.500 62.953,360.613 62.833,360.750 62.833 C 360.923 62.833,361.000 62.660,361.000 62.269 C 361.000 61.846,361.083 61.684,361.333 61.618 C 361.576 61.555,361.667 61.391,361.667 61.016 C 361.667 60.668,361.748 60.500,361.917 60.500 C 362.054 60.500,362.167 60.359,362.167 60.186 C 362.167 60.012,362.316 59.833,362.500 59.785 C 362.743 59.722,362.833 59.558,362.833 59.182 C 362.833 58.835,362.915 58.667,363.083 58.667 C 363.258 58.667,363.333 58.491,363.333 58.083 C 363.333 57.611,363.397 57.500,363.667 57.500 C 363.852 57.500,364.000 57.389,364.000 57.250 C 364.000 57.112,364.113 57.000,364.250 57.000 C 364.425 57.000,364.500 56.824,364.500 56.417 C 364.500 55.944,364.563 55.833,364.833 55.833 C 365.103 55.833,365.167 55.722,365.167 55.250 C 365.167 54.843,365.242 54.667,365.417 54.667 C 365.554 54.667,365.667 54.525,365.667 54.353 C 365.667 54.179,365.816 54.000,366.000 53.952 C 366.243 53.888,366.333 53.724,366.333 53.349 C 366.333 53.002,366.415 52.833,366.583 52.833 C 366.758 52.833,366.833 52.657,366.833 52.250 C 366.833 51.778,366.897 51.667,367.167 51.667 C 367.350 51.667,367.500 51.562,367.500 51.434 C 367.500 51.307,367.613 51.159,367.750 51.106 C 367.896 51.050,368.000 50.801,368.000 50.505 C 368.000 50.111,368.073 50.000,368.333 50.000 C 368.603 50.000,368.667 49.889,368.667 49.417 C 368.667 49.009,368.742 48.833,368.917 48.833 C 369.056 48.833,369.167 48.685,369.167 48.500 C 369.167 48.278,369.278 48.167,369.500 48.167 C 369.770 48.167,369.833 48.056,369.833 47.583 C 369.833 47.184,369.910 47.000,370.076 47.000 C 370.221 47.000,370.362 46.766,370.428 46.417 C 370.490 46.083,370.636 45.833,370.769 45.833 C 370.896 45.833,371.000 45.729,371.000 45.601 C 371.000 45.473,371.105 45.329,371.234 45.279 C 371.363 45.230,371.519 44.959,371.581 44.678 C 371.643 44.397,371.800 44.167,371.930 44.167 C 372.089 44.167,372.167 43.976,372.167 43.583 C 372.167 43.161,372.240 43.000,372.432 43.000 C 372.578 43.000,372.737 42.850,372.785 42.667 C 372.833 42.483,372.976 42.333,373.103 42.333 C 373.254 42.333,373.333 42.138,373.333 41.769 C 373.333 41.346,373.416 41.184,373.667 41.118 C 373.909 41.055,374.000 40.891,374.000 40.516 C 374.000 40.168,374.082 40.000,374.250 40.000 C 374.387 40.000,374.500 39.925,374.500 39.833 C 374.500 39.742,374.650 39.517,374.833 39.333 C 375.017 39.150,375.167 38.850,375.167 38.667 C 375.167 38.481,375.278 38.333,375.417 38.333 C 375.591 38.333,375.667 38.157,375.667 37.750 C 375.667 37.327,375.740 37.167,375.932 37.167 C 376.078 37.167,376.237 37.017,376.285 36.833 C 376.333 36.650,376.476 36.500,376.603 36.500 C 376.755 36.500,376.833 36.302,376.833 35.917 C 376.833 35.444,376.897 35.333,377.167 35.333 C 377.437 35.333,377.500 35.222,377.500 34.750 C 377.500 34.343,377.575 34.167,377.750 34.167 C 377.887 34.167,378.000 34.072,378.000 33.957 C 378.000 33.841,378.150 33.653,378.333 33.539 C 378.522 33.421,378.667 33.150,378.667 32.915 C 378.667 32.657,378.761 32.500,378.917 32.500 C 379.091 32.500,379.167 32.324,379.167 31.917 C 379.167 31.494,379.240 31.333,379.432 31.333 C 379.578 31.333,379.737 31.183,379.785 31.000 C 379.833 30.817,379.976 30.667,380.103 30.667 C 380.255 30.667,380.333 30.469,380.333 30.083 C 380.333 29.611,380.397 29.500,380.667 29.500 C 380.937 29.500,381.000 29.389,381.000 28.917 C 381.000 28.509,381.075 28.333,381.250 28.333 C 381.387 28.333,381.500 28.226,381.500 28.095 C 381.500 27.963,381.650 27.808,381.833 27.750 C 382.063 27.677,382.167 27.498,382.167 27.173 C 382.167 26.908,382.276 26.660,382.417 26.606 C 382.563 26.550,382.667 26.301,382.667 26.005 C 382.667 25.654,382.748 25.500,382.932 25.500 C 383.078 25.500,383.237 25.350,383.285 25.167 C 383.333 24.983,383.476 24.833,383.603 24.833 C 383.755 24.833,383.833 24.636,383.833 24.250 C 383.833 23.778,383.897 23.667,384.167 23.667 C 384.437 23.667,384.500 23.556,384.500 23.083 C 384.500 22.676,384.575 22.500,384.750 22.500 C 384.889 22.500,385.000 22.352,385.000 22.167 C 385.000 21.944,385.111 21.833,385.333 21.833 C 385.603 21.833,385.667 21.722,385.667 21.250 C 385.667 20.843,385.742 20.667,385.917 20.667 C 386.091 20.667,386.167 20.491,386.167 20.083 C 386.167 19.611,386.230 19.500,386.500 19.500 C 386.685 19.500,386.833 19.389,386.833 19.250 C 386.833 19.112,386.946 19.000,387.083 19.000 C 387.258 19.000,387.333 18.824,387.333 18.417 C 387.333 17.944,387.397 17.833,387.667 17.833 C 387.937 17.833,388.000 17.722,388.000 17.250 C 388.000 16.843,388.075 16.667,388.250 16.667 C 388.389 16.667,388.500 16.519,388.500 16.333 C 388.500 16.111,388.611 16.000,388.833 16.000 C 389.103 16.000,389.167 15.889,389.167 15.417 C 389.167 15.009,389.242 14.833,389.417 14.833 C 389.554 14.833,389.667 14.730,389.667 14.603 C 389.667 14.476,389.817 14.333,390.000 14.285 C 390.243 14.222,390.333 14.058,390.333 13.682 C 390.333 13.353,390.417 13.167,390.565 13.167 C 390.697 13.167,390.843 12.917,390.906 12.583 C 390.971 12.234,391.112 12.000,391.258 12.000 C 391.391 12.000,391.500 11.850,391.500 11.667 C 391.500 11.483,391.609 11.333,391.742 11.333 C 391.888 11.333,392.029 11.099,392.094 10.750 C 392.157 10.416,392.303 10.167,392.435 10.167 C 392.589 10.167,392.667 9.970,392.667 9.583 C 392.667 9.111,392.730 9.000,393.000 9.000 C 393.183 9.000,393.333 8.896,393.333 8.768 C 393.333 8.640,393.446 8.492,393.583 8.440 C 393.729 8.384,393.833 8.134,393.833 7.839 C 393.833 7.518,393.918 7.333,394.066 7.333 C 394.320 7.333,394.500 6.983,394.500 6.486 C 394.500 6.311,394.613 6.167,394.750 6.167 C 394.889 6.167,395.000 6.019,395.000 5.833 C 395.000 5.650,395.109 5.500,395.242 5.500 C 395.388 5.500,395.529 5.266,395.594 4.917 C 395.657 4.583,395.803 4.333,395.935 4.333 C 396.089 4.333,396.167 4.137,396.167 3.750 C 396.167 3.278,396.230 3.167,396.500 3.167 C 396.683 3.167,396.833 3.062,396.833 2.934 C 396.833 2.807,396.946 2.659,397.083 2.606 C 397.270 2.535,397.333 2.236,397.333 1.422 L 397.333 0.333 389.518 0.333 C 381.071 0.333,381.500 0.288,381.500 1.180 C 381.500 1.356,381.387 1.500,381.250 1.500 C 381.075 1.500,381.000 1.676,381.000 2.083 C 381.000 2.556,380.937 2.667,380.667 2.667 C 380.483 2.667,380.333 2.771,380.333 2.899 C 380.333 3.027,380.221 3.174,380.083 3.227 C 379.940 3.282,379.833 3.531,379.833 3.809 C 379.833 4.154,379.737 4.320,379.500 4.382 C 379.257 4.445,379.167 4.609,379.167 4.984 C 379.167 5.332,379.085 5.500,378.917 5.500 C 378.779 5.500,378.667 5.641,378.667 5.814 C 378.667 5.988,378.518 6.167,378.333 6.215 C 378.091 6.278,378.000 6.442,378.000 6.818 C 378.000 7.165,377.918 7.333,377.750 7.333 C 377.575 7.333,377.500 7.509,377.500 7.917 C 377.500 8.389,377.437 8.500,377.167 8.500 C 376.944 8.500,376.833 8.611,376.833 8.833 C 376.833 9.019,376.722 9.167,376.583 9.167 C 376.418 9.167,376.333 9.332,376.333 9.655 C 376.333 9.998,376.234 10.176,376.000 10.250 C 375.770 10.323,375.667 10.502,375.667 10.827 C 375.667 11.092,375.557 11.340,375.417 11.394 C 375.274 11.449,375.167 11.697,375.167 11.975 C 375.167 12.321,375.070 12.486,374.833 12.548 C 374.650 12.596,374.500 12.755,374.500 12.901 C 374.500 13.047,374.387 13.167,374.250 13.167 C 374.075 13.167,374.000 13.343,374.000 13.750 C 374.000 14.222,373.937 14.333,373.667 14.333 C 373.397 14.333,373.333 14.444,373.333 14.917 C 373.333 15.324,373.258 15.500,373.083 15.500 C 372.946 15.500,372.833 15.641,372.833 15.814 C 372.833 15.988,372.684 16.167,372.500 16.215 C 372.257 16.278,372.167 16.442,372.167 16.818 C 372.167 17.165,372.085 17.333,371.917 17.333 C 371.742 17.333,371.667 17.509,371.667 17.917 C 371.667 18.389,371.603 18.500,371.333 18.500 C 371.148 18.500,371.000 18.611,371.000 18.750 C 371.000 18.887,370.887 19.000,370.750 19.000 C 370.575 19.000,370.500 19.176,370.500 19.583 C 370.500 20.056,370.437 20.167,370.167 20.167 C 369.897 20.167,369.833 20.278,369.833 20.750 C 369.833 21.157,369.758 21.333,369.583 21.333 C 369.409 21.333,369.333 21.509,369.333 21.917 C 369.333 22.389,369.270 22.500,369.000 22.500 C 368.778 22.500,368.667 22.611,368.667 22.833 C 368.667 23.019,368.556 23.167,368.417 23.167 C 368.279 23.167,368.167 23.311,368.167 23.486 C 368.167 23.983,367.987 24.333,367.732 24.333 C 367.578 24.333,367.500 24.529,367.500 24.917 C 367.500 25.238,367.417 25.500,367.315 25.500 C 366.950 25.500,366.339 26.254,366.336 26.708 C 366.334 26.997,366.244 27.167,366.091 27.167 C 365.946 27.167,365.805 27.401,365.739 27.750 C 365.676 28.084,365.531 28.333,365.398 28.333 C 365.271 28.333,365.167 28.483,365.167 28.667 C 365.167 28.850,365.058 29.000,364.924 29.000 C 364.779 29.000,364.638 29.234,364.572 29.583 C 364.510 29.917,364.364 30.167,364.231 30.167 C 364.080 30.167,364.000 30.361,364.000 30.731 C 364.000 31.154,363.917 31.316,363.667 31.382 C 363.424 31.445,363.333 31.609,363.333 31.984 C 363.333 32.332,363.252 32.500,363.083 32.500 C 362.946 32.500,362.833 32.575,362.833 32.667 C 362.833 32.758,362.683 32.983,362.500 33.167 C 362.317 33.350,362.167 33.650,362.167 33.833 C 362.167 34.019,362.056 34.167,361.917 34.167 C 361.742 34.167,361.667 34.343,361.667 34.750 C 361.667 35.173,361.593 35.333,361.401 35.333 C 361.255 35.333,361.096 35.483,361.048 35.667 C 361.000 35.850,360.857 36.000,360.731 36.000 C 360.580 36.000,360.500 36.195,360.500 36.564 C 360.500 36.988,360.417 37.149,360.167 37.215 C 359.924 37.278,359.833 37.442,359.833 37.818 C 359.833 38.165,359.752 38.333,359.583 38.333 C 359.409 38.333,359.333 38.509,359.333 38.917 C 359.333 39.389,359.270 39.500,359.000 39.500 C 358.817 39.500,358.667 39.604,358.667 39.732 C 358.667 39.860,358.554 40.008,358.417 40.060 C 358.274 40.115,358.167 40.364,358.167 40.642 C 358.167 40.988,358.070 41.153,357.833 41.215 C 357.591 41.278,357.500 41.442,357.500 41.818 C 357.500 42.165,357.418 42.333,357.250 42.333 C 357.113 42.333,357.000 42.475,357.000 42.647 C 357.000 42.821,356.851 43.000,356.667 43.048 C 356.424 43.112,356.333 43.276,356.333 43.651 C 356.333 43.998,356.252 44.167,356.083 44.167 C 355.909 44.167,355.833 44.343,355.833 44.750 C 355.833 45.222,355.770 45.333,355.500 45.333 C 355.278 45.333,355.167 45.444,355.167 45.667 C 355.167 45.852,355.056 46.000,354.917 46.000 C 354.751 46.000,354.667 46.165,354.667 46.489 C 354.667 46.831,354.567 47.009,354.333 47.083 C 354.100 47.157,354.000 47.336,354.000 47.678 C 354.000 48.001,353.915 48.167,353.750 48.167 C 353.577 48.167,353.500 48.340,353.500 48.731 C 353.500 49.154,353.417 49.316,353.167 49.382 C 352.983 49.430,352.833 49.588,352.833 49.734 C 352.833 49.880,352.721 50.000,352.583 50.000 C 352.409 50.000,352.333 50.176,352.333 50.583 C 352.333 51.056,352.270 51.167,352.000 51.167 C 351.730 51.167,351.667 51.278,351.667 51.750 C 351.667 52.157,351.591 52.333,351.417 52.333 C 351.279 52.333,351.167 52.475,351.167 52.647 C 351.167 52.821,351.018 53.000,350.833 53.048 C 350.591 53.112,350.500 53.276,350.500 53.651 C 350.500 53.998,350.418 54.167,350.250 54.167 C 350.075 54.167,350.000 54.343,350.000 54.750 C 350.000 55.222,349.937 55.333,349.667 55.333 C 349.444 55.333,349.333 55.222,349.333 55.000 C 349.333 54.817,349.224 54.667,349.091 54.667 C 348.946 54.667,348.805 54.433,348.739 54.083 C 348.676 53.749,348.531 53.500,348.398 53.500 C 348.251 53.500,348.167 53.313,348.167 52.984 C 348.167 52.609,348.076 52.445,347.833 52.382 C 347.650 52.334,347.500 52.188,347.500 52.059 C 347.500 51.929,347.387 51.780,347.250 51.727 C 347.109 51.673,347.000 51.425,347.000 51.160 C 347.000 50.836,346.896 50.656,346.667 50.583 C 346.433 50.509,346.333 50.331,346.333 49.989 C 346.333 49.665,346.249 49.500,346.083 49.500 C 345.944 49.500,345.833 49.352,345.833 49.167 C 345.833 48.944,345.722 48.833,345.500 48.833 C 345.230 48.833,345.167 48.722,345.167 48.250 C 345.167 47.843,345.091 47.667,344.917 47.667 C 344.748 47.667,344.667 47.498,344.667 47.151 C 344.667 46.776,344.576 46.612,344.333 46.548 C 344.149 46.500,344.000 46.321,344.000 46.147 C 344.000 45.975,343.887 45.833,343.750 45.833 C 343.582 45.833,343.500 45.665,343.500 45.318 C 343.500 44.942,343.409 44.778,343.167 44.715 C 342.930 44.653,342.833 44.488,342.833 44.142 C 342.833 43.864,342.726 43.615,342.583 43.560 C 342.446 43.508,342.333 43.288,342.333 43.071 C 342.333 42.849,342.189 42.601,342.000 42.500 C 341.817 42.402,341.667 42.212,341.667 42.077 C 341.667 41.943,341.554 41.833,341.417 41.833 C 341.242 41.833,341.167 41.657,341.167 41.250 C 341.167 40.778,341.103 40.667,340.833 40.667 C 340.563 40.667,340.500 40.556,340.500 40.083 C 340.500 39.676,340.425 39.500,340.250 39.500 C 340.111 39.500,340.000 39.352,340.000 39.167 C 340.000 38.944,339.889 38.833,339.667 38.833 C 339.397 38.833,339.333 38.722,339.333 38.250 C 339.333 37.843,339.258 37.667,339.083 37.667 C 338.928 37.667,338.833 37.509,338.833 37.251 C 338.833 37.017,338.688 36.746,338.500 36.628 C 338.317 36.513,338.167 36.325,338.167 36.210 C 338.167 36.094,338.054 36.000,337.917 36.000 C 337.742 36.000,337.667 35.824,337.667 35.417 C 337.667 34.944,337.603 34.833,337.333 34.833 C 337.063 34.833,337.000 34.722,337.000 34.250 C 337.000 33.843,336.925 33.667,336.750 33.667 C 336.611 33.667,336.500 33.519,336.500 33.333 C 336.500 33.111,336.389 33.000,336.167 33.000 C 335.897 33.000,335.833 32.889,335.833 32.417 C 335.833 32.009,335.758 31.833,335.583 31.833 C 335.415 31.833,335.333 31.665,335.333 31.318 C 335.333 30.942,335.243 30.778,335.000 30.715 C 334.763 30.653,334.667 30.488,334.667 30.142 C 334.667 29.864,334.560 29.615,334.417 29.560 C 334.279 29.508,334.167 29.360,334.167 29.232 C 334.167 29.104,334.017 29.000,333.833 29.000 C 333.563 29.000,333.500 28.889,333.500 28.417 C 333.500 28.009,333.425 27.833,333.250 27.833 C 333.112 27.833,333.000 27.689,333.000 27.514 C 333.000 27.017,332.820 26.667,332.566 26.667 C 332.438 26.667,332.333 26.517,332.333 26.333 C 332.333 26.148,332.222 26.000,332.083 26.000 C 331.915 26.000,331.833 25.832,331.833 25.484 C 331.833 25.109,331.743 24.945,331.500 24.882 C 331.263 24.820,331.167 24.654,331.167 24.309 C 331.167 24.031,331.060 23.782,330.917 23.727 C 330.779 23.674,330.667 23.527,330.667 23.399 C 330.667 23.271,330.517 23.167,330.333 23.167 C 330.063 23.167,330.000 23.056,330.000 22.583 C 330.000 22.197,329.922 22.000,329.769 22.000 C 329.636 22.000,329.490 21.751,329.428 21.417 C 329.362 21.067,329.221 20.833,329.076 20.833 C 328.910 20.833,328.833 20.649,328.833 20.250 C 328.833 19.855,328.756 19.667,328.595 19.667 C 328.463 19.667,328.308 19.517,328.250 19.333 C 328.192 19.150,328.037 19.000,327.905 19.000 C 327.744 19.000,327.667 18.812,327.667 18.417 C 327.667 17.944,327.603 17.833,327.333 17.833 C 327.063 17.833,327.000 17.722,327.000 17.250 C 327.000 16.843,326.925 16.667,326.750 16.667 C 326.612 16.667,326.500 16.559,326.500 16.428 C 326.500 16.297,326.350 16.142,326.167 16.083 C 325.937 16.010,325.833 15.831,325.833 15.507 C 325.833 15.242,325.724 14.994,325.583 14.940 C 325.437 14.884,325.333 14.634,325.333 14.339 C 325.333 13.944,325.260 13.833,325.000 13.833 C 324.778 13.833,324.667 13.722,324.667 13.500 C 324.667 13.315,324.556 13.167,324.417 13.167 C 324.242 13.167,324.167 12.991,324.167 12.583 C 324.167 12.111,324.103 12.000,323.833 12.000 C 323.563 12.000,323.500 11.889,323.500 11.417 C 323.500 11.009,323.425 10.833,323.250 10.833 C 323.082 10.833,323.000 10.665,323.000 10.318 C 323.000 9.942,322.909 9.778,322.667 9.715 C 322.482 9.667,322.333 9.488,322.333 9.314 C 322.333 9.141,322.221 9.000,322.083 9.000 C 321.918 9.000,321.833 8.835,321.833 8.511 C 321.833 8.169,321.734 7.991,321.500 7.917 C 321.270 7.844,321.167 7.664,321.167 7.340 C 321.167 7.075,321.057 6.827,320.917 6.773 C 320.779 6.720,320.667 6.562,320.667 6.422 C 320.667 6.278,320.522 6.167,320.333 6.167 C 320.063 6.167,320.000 6.056,320.000 5.583 C 320.000 5.176,319.925 5.000,319.750 5.000 C 319.582 5.000,319.500 4.832,319.500 4.484 C 319.500 4.109,319.409 3.945,319.167 3.882 C 318.982 3.833,318.833 3.654,318.833 3.481 C 318.833 3.308,318.721 3.167,318.583 3.167 C 318.415 3.167,318.333 2.998,318.333 2.651 C 318.333 2.276,318.243 2.112,318.000 2.048 C 317.763 1.986,317.667 1.821,317.667 1.475 C 317.667 1.197,317.560 0.949,317.417 0.894 C 317.279 0.841,317.167 0.693,317.167 0.566 C 317.167 0.318,301.023 0.199,300.778 0.444 " stroke="none" fill="#f49c0c" fill-rule="evenodd"></path><path id="path1" d="M45.333 0.167 C 45.333 0.258,45.071 0.333,44.750 0.333 C 44.343 0.333,44.167 0.409,44.167 0.583 C 44.167 0.739,44.009 0.833,43.751 0.833 C 43.517 0.833,43.246 0.978,43.128 1.167 C 43.013 1.350,42.825 1.500,42.710 1.500 C 42.581 1.500,42.500 1.725,42.500 2.083 C 42.500 2.556,42.437 2.667,42.167 2.667 C 41.981 2.667,41.833 2.778,41.833 2.917 C 41.833 3.054,41.721 3.167,41.583 3.167 C 41.410 3.167,41.333 3.340,41.333 3.731 C 41.333 4.154,41.250 4.316,41.000 4.382 C 40.817 4.430,40.667 4.588,40.667 4.734 C 40.667 4.880,40.554 5.000,40.417 5.000 C 40.242 5.000,40.167 5.176,40.167 5.583 C 40.167 6.056,40.103 6.167,39.833 6.167 C 39.563 6.167,39.500 6.278,39.500 6.750 C 39.500 7.157,39.425 7.333,39.250 7.333 C 39.112 7.333,39.000 7.443,39.000 7.577 C 39.000 7.712,38.850 7.902,38.667 8.000 C 38.478 8.101,38.333 8.349,38.333 8.571 C 38.333 8.788,38.221 9.008,38.083 9.060 C 37.940 9.115,37.833 9.364,37.833 9.642 C 37.833 9.988,37.737 10.153,37.500 10.215 C 37.317 10.263,37.167 10.422,37.167 10.568 C 37.167 10.714,37.054 10.833,36.917 10.833 C 36.742 10.833,36.667 11.009,36.667 11.417 C 36.667 11.889,36.603 12.000,36.333 12.000 C 36.063 12.000,36.000 12.111,36.000 12.583 C 36.000 12.991,35.925 13.167,35.750 13.167 C 35.611 13.167,35.500 13.315,35.500 13.500 C 35.500 13.722,35.389 13.833,35.167 13.833 C 34.907 13.833,34.833 13.944,34.833 14.339 C 34.833 14.634,34.729 14.884,34.583 14.940 C 34.443 14.994,34.333 15.242,34.333 15.507 C 34.333 15.831,34.230 16.010,34.000 16.083 C 33.817 16.142,33.667 16.297,33.667 16.428 C 33.667 16.559,33.554 16.667,33.417 16.667 C 33.242 16.667,33.167 16.843,33.167 17.250 C 33.167 17.722,33.103 17.833,32.833 17.833 C 32.563 17.833,32.500 17.944,32.500 18.417 C 32.500 18.824,32.425 19.000,32.250 19.000 C 32.111 19.000,32.000 19.148,32.000 19.333 C 32.000 19.556,31.889 19.667,31.667 19.667 C 31.397 19.667,31.333 19.778,31.333 20.250 C 31.333 20.657,31.258 20.833,31.083 20.833 C 30.946 20.833,30.833 20.977,30.833 21.153 C 30.833 21.650,30.654 22.000,30.399 22.000 C 30.271 22.000,30.167 22.113,30.167 22.250 C 30.167 22.387,30.063 22.500,29.935 22.500 C 29.803 22.500,29.657 22.749,29.594 23.083 C 29.529 23.433,29.388 23.667,29.242 23.667 C 29.076 23.667,29.000 23.851,29.000 24.250 C 29.000 24.673,28.927 24.833,28.734 24.833 C 28.588 24.833,28.430 24.983,28.382 25.167 C 28.334 25.350,28.191 25.500,28.064 25.500 C 27.913 25.500,27.833 25.695,27.833 26.064 C 27.833 26.488,27.750 26.649,27.500 26.715 C 27.257 26.778,27.167 26.942,27.167 27.318 C 27.167 27.665,27.085 27.833,26.917 27.833 C 26.779 27.833,26.667 27.946,26.667 28.083 C 26.667 28.221,26.562 28.333,26.434 28.333 C 26.180 28.333,26.000 28.684,26.000 29.180 C 26.000 29.356,25.887 29.500,25.750 29.500 C 25.577 29.500,25.500 29.674,25.500 30.064 C 25.500 30.488,25.417 30.649,25.167 30.715 C 24.983 30.763,24.833 30.922,24.833 31.068 C 24.833 31.214,24.721 31.333,24.583 31.333 C 24.409 31.333,24.333 31.509,24.333 31.917 C 24.333 32.389,24.270 32.500,24.000 32.500 C 23.730 32.500,23.667 32.611,23.667 33.083 C 23.667 33.491,23.591 33.667,23.417 33.667 C 23.279 33.667,23.167 33.770,23.167 33.897 C 23.167 34.024,23.017 34.167,22.833 34.215 C 22.591 34.278,22.500 34.442,22.500 34.818 C 22.500 35.165,22.418 35.333,22.250 35.333 C 22.077 35.333,22.000 35.507,22.000 35.897 C 22.000 36.321,21.917 36.483,21.667 36.548 C 21.483 36.596,21.333 36.755,21.333 36.901 C 21.333 37.047,21.221 37.167,21.083 37.167 C 20.909 37.167,20.833 37.343,20.833 37.750 C 20.833 38.222,20.770 38.333,20.500 38.333 C 20.230 38.333,20.167 38.444,20.167 38.917 C 20.167 39.324,20.091 39.500,19.917 39.500 C 19.779 39.500,19.667 39.604,19.667 39.731 C 19.667 39.857,19.517 40.000,19.333 40.048 C 19.091 40.112,19.000 40.276,19.000 40.651 C 19.000 40.998,18.918 41.167,18.750 41.167 C 18.577 41.167,18.500 41.340,18.500 41.731 C 18.500 42.154,18.417 42.316,18.167 42.382 C 17.983 42.430,17.833 42.588,17.833 42.734 C 17.833 42.880,17.721 43.000,17.583 43.000 C 17.409 43.000,17.333 43.176,17.333 43.583 C 17.333 44.056,17.270 44.167,17.000 44.167 C 16.730 44.167,16.667 44.278,16.667 44.750 C 16.667 45.157,16.591 45.333,16.417 45.333 C 16.279 45.333,16.167 45.441,16.167 45.572 C 16.167 45.703,16.017 45.858,15.833 45.917 C 15.604 45.990,15.500 46.169,15.500 46.493 C 15.500 46.758,15.391 47.006,15.250 47.060 C 15.104 47.116,15.000 47.366,15.000 47.661 C 15.000 48.013,14.919 48.167,14.734 48.167 C 14.588 48.167,14.430 48.317,14.382 48.500 C 14.334 48.683,14.191 48.833,14.064 48.833 C 13.912 48.833,13.833 49.031,13.833 49.417 C 13.833 49.889,13.770 50.000,13.500 50.000 C 13.230 50.000,13.167 50.111,13.167 50.583 C 13.167 50.991,13.091 51.167,12.917 51.167 C 12.778 51.167,12.667 51.315,12.667 51.500 C 12.667 51.722,12.556 51.833,12.333 51.833 C 12.073 51.833,12.000 51.944,12.000 52.339 C 12.000 52.634,11.896 52.884,11.750 52.940 C 11.605 52.995,11.500 53.245,11.500 53.533 C 11.500 53.891,11.406 54.056,11.167 54.118 C 10.983 54.166,10.833 54.309,10.833 54.436 C 10.833 54.563,10.721 54.667,10.583 54.667 C 10.409 54.667,10.333 54.843,10.333 55.250 C 10.333 55.722,10.270 55.833,10.000 55.833 C 9.730 55.833,9.667 55.944,9.667 56.417 C 9.667 56.802,9.588 57.000,9.436 57.000 C 9.309 57.000,9.166 57.150,9.118 57.333 C 9.070 57.517,8.912 57.667,8.766 57.667 C 8.575 57.667,8.500 57.826,8.500 58.231 C 8.500 58.654,8.417 58.816,8.167 58.882 C 7.924 58.945,7.833 59.109,7.833 59.484 C 7.833 59.832,7.752 60.000,7.583 60.000 C 7.446 60.000,7.333 60.112,7.333 60.250 C 7.333 60.387,7.229 60.500,7.101 60.500 C 6.846 60.500,6.667 60.850,6.667 61.347 C 6.667 61.523,6.554 61.667,6.417 61.667 C 6.244 61.667,6.167 61.840,6.167 62.231 C 6.167 62.654,6.084 62.816,5.833 62.882 C 5.650 62.930,5.500 63.088,5.500 63.234 C 5.500 63.380,5.388 63.500,5.250 63.500 C 5.075 63.500,5.000 63.676,5.000 64.083 C 5.000 64.556,4.937 64.667,4.667 64.667 C 4.397 64.667,4.333 64.778,4.333 65.250 C 4.333 65.657,4.258 65.833,4.083 65.833 C 3.946 65.833,3.833 65.937,3.833 66.064 C 3.833 66.191,3.683 66.334,3.500 66.382 C 3.257 66.445,3.167 66.609,3.167 66.984 C 3.167 67.332,3.085 67.500,2.917 67.500 C 2.744 67.500,2.667 67.674,2.667 68.064 C 2.667 68.488,2.584 68.649,2.333 68.715 C 2.150 68.763,2.000 68.922,2.000 69.068 C 2.000 69.214,1.887 69.333,1.750 69.333 C 1.575 69.333,1.500 69.509,1.500 69.917 C 1.500 70.389,1.437 70.500,1.167 70.500 C 0.897 70.500,0.833 70.611,0.833 71.083 C 0.833 71.491,0.758 71.667,0.583 71.667 C 0.446 71.667,0.333 71.779,0.333 71.917 C 0.333 72.054,0.258 72.167,0.167 72.167 C 0.075 72.167,0.000 72.580,0.000 73.085 L 0.000 74.003 8.292 73.960 L 16.583 73.917 16.634 73.392 C 16.669 73.039,16.791 72.840,17.009 72.783 C 17.242 72.722,17.333 72.553,17.333 72.182 C 17.333 71.835,17.415 71.667,17.583 71.667 C 17.721 71.667,17.833 71.525,17.833 71.353 C 17.833 71.179,17.982 71.000,18.167 70.952 C 18.409 70.888,18.500 70.724,18.500 70.349 C 18.500 70.002,18.582 69.833,18.750 69.833 C 18.925 69.833,19.000 69.657,19.000 69.250 C 19.000 68.778,19.063 68.667,19.333 68.667 C 19.522 68.667,19.667 68.556,19.667 68.411 C 19.667 68.271,19.779 68.113,19.917 68.060 C 20.056 68.007,20.167 67.759,20.167 67.502 C 20.167 67.179,20.268 67.012,20.500 66.952 C 20.743 66.888,20.833 66.724,20.833 66.349 C 20.833 66.002,20.915 65.833,21.083 65.833 C 21.221 65.833,21.333 65.692,21.333 65.519 C 21.333 65.346,21.482 65.167,21.667 65.118 C 21.909 65.055,22.000 64.891,22.000 64.516 C 22.000 64.168,22.082 64.000,22.250 64.000 C 22.425 64.000,22.500 63.824,22.500 63.417 C 22.500 62.944,22.563 62.833,22.833 62.833 C 23.103 62.833,23.167 62.722,23.167 62.250 C 23.167 61.843,23.242 61.667,23.417 61.667 C 23.554 61.667,23.667 61.547,23.667 61.401 C 23.667 61.255,23.817 61.096,24.000 61.048 C 24.237 60.986,24.333 60.821,24.333 60.475 C 24.333 60.197,24.440 59.949,24.583 59.894 C 24.724 59.840,24.833 59.592,24.833 59.327 C 24.833 59.002,24.937 58.823,25.167 58.750 C 25.350 58.692,25.500 58.537,25.500 58.405 C 25.500 58.274,25.613 58.167,25.750 58.167 C 25.925 58.167,26.000 57.991,26.000 57.583 C 26.000 57.111,26.063 57.000,26.333 57.000 C 26.603 57.000,26.667 56.889,26.667 56.417 C 26.667 56.009,26.742 55.833,26.917 55.833 C 27.054 55.833,27.167 55.692,27.167 55.519 C 27.167 55.346,27.316 55.167,27.500 55.118 C 27.743 55.055,27.833 54.891,27.833 54.516 C 27.833 54.168,27.915 54.000,28.083 54.000 C 28.258 54.000,28.333 53.824,28.333 53.417 C 28.333 52.944,28.397 52.833,28.667 52.833 C 28.852 52.833,29.000 52.722,29.000 52.583 C 29.000 52.446,29.113 52.333,29.250 52.333 C 29.423 52.333,29.500 52.160,29.500 51.769 C 29.500 51.346,29.583 51.184,29.833 51.118 C 30.076 51.055,30.167 50.891,30.167 50.516 C 30.167 50.168,30.248 50.000,30.417 50.000 C 30.591 50.000,30.667 49.824,30.667 49.417 C 30.667 48.944,30.730 48.833,31.000 48.833 C 31.222 48.833,31.333 48.722,31.333 48.500 C 31.333 48.315,31.444 48.167,31.583 48.167 C 31.721 48.167,31.833 48.023,31.833 47.847 C 31.833 47.350,32.013 47.000,32.268 47.000 C 32.422 47.000,32.500 46.804,32.500 46.417 C 32.500 46.063,32.582 45.832,32.708 45.830 C 33.067 45.825,33.667 45.056,33.667 44.602 C 33.667 44.341,33.760 44.167,33.899 44.167 C 34.154 44.167,34.333 43.816,34.333 43.320 C 34.333 43.144,34.446 43.000,34.583 43.000 C 34.722 43.000,34.833 42.852,34.833 42.667 C 34.833 42.483,34.942 42.333,35.076 42.333 C 35.221 42.333,35.362 42.099,35.428 41.750 C 35.490 41.416,35.636 41.167,35.769 41.167 C 35.920 41.167,36.000 40.973,36.000 40.603 C 36.000 40.179,36.083 40.017,36.333 39.952 C 36.576 39.888,36.667 39.724,36.667 39.349 C 36.667 39.002,36.748 38.833,36.917 38.833 C 37.054 38.833,37.167 38.721,37.167 38.583 C 37.167 38.446,37.271 38.333,37.399 38.333 C 37.654 38.333,37.833 37.983,37.833 37.486 C 37.833 37.311,37.946 37.167,38.083 37.167 C 38.256 37.167,38.333 36.993,38.333 36.603 C 38.333 36.179,38.416 36.017,38.667 35.952 C 38.850 35.904,39.000 35.745,39.000 35.599 C 39.000 35.453,39.112 35.333,39.250 35.333 C 39.425 35.333,39.500 35.157,39.500 34.750 C 39.500 34.278,39.563 34.167,39.833 34.167 C 40.103 34.167,40.167 34.056,40.167 33.583 C 40.167 33.176,40.242 33.000,40.417 33.000 C 40.554 33.000,40.667 32.890,40.667 32.756 C 40.667 32.622,40.817 32.431,41.000 32.333 C 41.189 32.232,41.333 31.984,41.333 31.762 C 41.333 31.546,41.446 31.326,41.583 31.273 C 41.726 31.218,41.833 30.969,41.833 30.691 C 41.833 30.346,41.930 30.180,42.167 30.118 C 42.409 30.055,42.500 29.891,42.500 29.516 C 42.500 29.168,42.582 29.000,42.750 29.000 C 42.887 29.000,43.000 28.859,43.000 28.686 C 43.000 28.512,43.149 28.333,43.333 28.285 C 43.576 28.222,43.667 28.058,43.667 27.682 C 43.667 27.335,43.748 27.167,43.917 27.167 C 44.091 27.167,44.167 26.991,44.167 26.583 C 44.167 26.111,44.230 26.000,44.500 26.000 C 44.722 26.000,44.833 25.889,44.833 25.667 C 44.833 25.481,44.944 25.333,45.083 25.333 C 45.249 25.333,45.333 25.168,45.333 24.845 C 45.333 24.502,45.433 24.324,45.667 24.250 C 45.896 24.177,46.000 23.998,46.000 23.673 C 46.000 23.408,46.109 23.160,46.250 23.106 C 46.387 23.054,46.500 22.904,46.500 22.775 C 46.500 22.645,46.650 22.500,46.833 22.452 C 47.076 22.388,47.167 22.224,47.167 21.849 C 47.167 21.502,47.248 21.333,47.417 21.333 C 47.591 21.333,47.667 21.157,47.667 20.750 C 47.667 20.278,47.730 20.167,48.000 20.167 C 48.222 20.167,48.333 20.056,48.333 19.833 C 48.333 19.648,48.444 19.500,48.583 19.500 C 48.721 19.500,48.833 19.620,48.833 19.766 C 48.833 19.912,48.983 20.070,49.167 20.118 C 49.417 20.184,49.500 20.346,49.500 20.769 C 49.500 21.152,49.578 21.333,49.742 21.333 C 49.888 21.333,50.029 21.567,50.094 21.917 C 50.157 22.251,50.303 22.500,50.435 22.500 C 50.563 22.500,50.667 22.596,50.667 22.713 C 50.667 22.830,50.817 23.054,51.000 23.211 C 51.183 23.368,51.333 23.650,51.333 23.837 C 51.333 24.024,51.446 24.220,51.583 24.273 C 51.724 24.327,51.833 24.575,51.833 24.840 C 51.833 25.164,51.937 25.344,52.167 25.417 C 52.400 25.491,52.500 25.669,52.500 26.011 C 52.500 26.335,52.585 26.500,52.750 26.500 C 52.889 26.500,53.000 26.648,53.000 26.833 C 53.000 27.056,53.111 27.167,53.333 27.167 C 53.603 27.167,53.667 27.278,53.667 27.750 C 53.667 28.157,53.742 28.333,53.917 28.333 C 54.085 28.333,54.167 28.502,54.167 28.849 C 54.167 29.224,54.257 29.388,54.500 29.452 C 54.684 29.500,54.833 29.679,54.833 29.853 C 54.833 30.025,54.946 30.167,55.083 30.167 C 55.252 30.167,55.333 30.335,55.333 30.682 C 55.333 31.058,55.424 31.222,55.667 31.285 C 55.904 31.347,56.000 31.512,56.000 31.858 C 56.000 32.136,56.107 32.385,56.250 32.440 C 56.387 32.492,56.500 32.640,56.500 32.768 C 56.500 32.896,56.650 33.000,56.833 33.000 C 57.103 33.000,57.167 33.111,57.167 33.583 C 57.167 33.991,57.242 34.167,57.417 34.167 C 57.591 34.167,57.667 34.343,57.667 34.750 C 57.667 35.222,57.730 35.333,58.000 35.333 C 58.270 35.333,58.333 35.444,58.333 35.917 C 58.333 36.324,58.409 36.500,58.583 36.500 C 58.722 36.500,58.833 36.648,58.833 36.833 C 58.833 37.056,58.944 37.167,59.167 37.167 C 59.437 37.167,59.500 37.278,59.500 37.750 C 59.500 38.157,59.575 38.333,59.750 38.333 C 59.915 38.333,60.000 38.499,60.000 38.822 C 60.000 39.164,60.100 39.343,60.333 39.417 C 60.517 39.475,60.667 39.630,60.667 39.761 C 60.667 39.893,60.779 40.000,60.917 40.000 C 61.091 40.000,61.167 40.176,61.167 40.583 C 61.167 41.056,61.230 41.167,61.500 41.167 C 61.770 41.167,61.833 41.278,61.833 41.750 C 61.833 42.157,61.909 42.333,62.083 42.333 C 62.252 42.333,62.333 42.502,62.333 42.849 C 62.333 43.224,62.424 43.388,62.667 43.452 C 62.851 43.500,63.000 43.679,63.000 43.853 C 63.000 44.025,63.112 44.167,63.250 44.167 C 63.418 44.167,63.500 44.335,63.500 44.682 C 63.500 45.058,63.591 45.222,63.833 45.285 C 64.070 45.347,64.167 45.512,64.167 45.858 C 64.167 46.136,64.274 46.385,64.417 46.440 C 64.554 46.492,64.667 46.640,64.667 46.768 C 64.667 46.896,64.817 47.000,65.000 47.000 C 65.270 47.000,65.333 47.111,65.333 47.583 C 65.333 47.991,65.409 48.167,65.583 48.167 C 65.721 48.167,65.833 48.311,65.833 48.486 C 65.833 48.983,66.013 49.333,66.268 49.333 C 66.396 49.333,66.500 49.483,66.500 49.667 C 66.500 49.852,66.611 50.000,66.750 50.000 C 66.918 50.000,67.000 50.168,67.000 50.516 C 67.000 50.891,67.091 51.055,67.333 51.118 C 67.584 51.184,67.667 51.346,67.667 51.769 C 67.667 52.139,67.746 52.333,67.898 52.333 C 68.031 52.333,68.176 52.583,68.239 52.917 C 68.305 53.266,68.446 53.500,68.591 53.500 C 68.724 53.500,68.833 53.612,68.833 53.750 C 68.833 53.887,68.946 54.000,69.083 54.000 C 69.252 54.000,69.333 54.168,69.333 54.516 C 69.333 54.891,69.424 55.055,69.667 55.118 C 69.917 55.184,70.000 55.346,70.000 55.769 C 70.000 56.138,70.080 56.333,70.231 56.333 C 70.357 56.333,70.500 56.483,70.548 56.667 C 70.596 56.850,70.755 57.000,70.901 57.000 C 71.093 57.000,71.167 57.161,71.167 57.583 C 71.167 57.983,71.243 58.167,71.409 58.167 C 71.554 58.167,71.695 58.401,71.761 58.750 C 71.824 59.084,71.969 59.333,72.102 59.333 C 72.229 59.333,72.333 59.443,72.333 59.577 C 72.333 59.712,72.483 59.902,72.667 60.000 C 72.863 60.105,73.000 60.349,73.000 60.594 C 73.000 60.823,73.112 61.054,73.250 61.106 C 73.389 61.160,73.500 61.407,73.500 61.665 C 73.500 61.988,73.601 62.154,73.833 62.215 C 74.076 62.278,74.167 62.442,74.167 62.818 C 74.167 63.165,74.248 63.333,74.417 63.333 C 74.556 63.333,74.667 63.481,74.667 63.667 C 74.667 63.889,74.778 64.000,75.000 64.000 C 75.270 64.000,75.333 64.111,75.333 64.583 C 75.333 64.991,75.409 65.167,75.583 65.167 C 75.752 65.167,75.833 65.335,75.833 65.682 C 75.833 66.058,75.924 66.222,76.167 66.285 C 76.351 66.333,76.500 66.512,76.500 66.686 C 76.500 66.859,76.612 67.000,76.750 67.000 C 76.918 67.000,77.000 67.168,77.000 67.516 C 77.000 67.891,77.091 68.055,77.333 68.118 C 77.570 68.180,77.667 68.346,77.667 68.691 C 77.667 68.969,77.774 69.218,77.917 69.273 C 78.054 69.326,78.167 69.473,78.167 69.601 C 78.167 69.729,78.317 69.833,78.500 69.833 C 78.770 69.833,78.833 69.944,78.833 70.417 C 78.833 70.824,78.909 71.000,79.083 71.000 C 79.258 71.000,79.333 71.176,79.333 71.583 C 79.333 72.056,79.397 72.167,79.667 72.167 C 79.937 72.167,80.000 72.278,80.000 72.750 C 80.000 73.157,80.075 73.333,80.250 73.333 C 80.389 73.333,80.500 73.481,80.500 73.667 C 80.500 73.995,80.611 74.000,88.417 74.000 L 96.333 74.000 96.333 73.083 C 96.333 72.411,96.271 72.167,96.101 72.167 C 95.846 72.167,95.667 71.816,95.667 71.320 C 95.667 71.144,95.554 71.000,95.417 71.000 C 95.248 71.000,95.167 70.832,95.167 70.484 C 95.167 70.109,95.076 69.945,94.833 69.882 C 94.650 69.834,94.500 69.691,94.500 69.564 C 94.500 69.437,94.388 69.333,94.250 69.333 C 94.075 69.333,94.000 69.157,94.000 68.750 C 94.000 68.278,93.937 68.167,93.667 68.167 C 93.444 68.167,93.333 68.056,93.333 67.833 C 93.333 67.648,93.222 67.500,93.083 67.500 C 92.909 67.500,92.833 67.324,92.833 66.917 C 92.833 66.444,92.770 66.333,92.500 66.333 C 92.230 66.333,92.167 66.222,92.167 65.750 C 92.167 65.343,92.091 65.167,91.917 65.167 C 91.779 65.167,91.667 65.054,91.667 64.917 C 91.667 64.778,91.519 64.667,91.333 64.667 C 91.063 64.667,91.000 64.556,91.000 64.083 C 91.000 63.676,90.925 63.500,90.750 63.500 C 90.575 63.500,90.500 63.324,90.500 62.917 C 90.500 62.444,90.437 62.333,90.167 62.333 C 89.944 62.333,89.833 62.222,89.833 62.000 C 89.833 61.815,89.722 61.667,89.583 61.667 C 89.409 61.667,89.333 61.491,89.333 61.083 C 89.333 60.611,89.270 60.500,89.000 60.500 C 88.730 60.500,88.667 60.389,88.667 59.917 C 88.667 59.509,88.591 59.333,88.417 59.333 C 88.279 59.333,88.167 59.221,88.167 59.083 C 88.167 58.944,88.019 58.833,87.833 58.833 C 87.563 58.833,87.500 58.722,87.500 58.250 C 87.500 57.843,87.425 57.667,87.250 57.667 C 87.075 57.667,87.000 57.491,87.000 57.083 C 87.000 56.611,86.937 56.500,86.667 56.500 C 86.444 56.500,86.333 56.389,86.333 56.167 C 86.333 55.981,86.222 55.833,86.083 55.833 C 85.909 55.833,85.833 55.657,85.833 55.250 C 85.833 54.778,85.770 54.667,85.500 54.667 C 85.230 54.667,85.167 54.556,85.167 54.083 C 85.167 53.676,85.091 53.500,84.917 53.500 C 84.779 53.500,84.667 53.393,84.667 53.261 C 84.667 53.130,84.517 52.975,84.333 52.917 C 84.104 52.844,84.000 52.664,84.000 52.340 C 84.000 52.075,83.891 51.827,83.750 51.773 C 83.612 51.720,83.500 51.480,83.500 51.240 C 83.500 50.942,83.393 50.774,83.167 50.715 C 82.982 50.667,82.833 50.488,82.833 50.314 C 82.833 50.141,82.721 50.000,82.583 50.000 C 82.409 50.000,82.333 49.824,82.333 49.417 C 82.333 48.944,82.270 48.833,82.000 48.833 C 81.730 48.833,81.667 48.722,81.667 48.250 C 81.667 47.864,81.588 47.667,81.436 47.667 C 81.309 47.667,81.166 47.517,81.118 47.333 C 81.070 47.150,80.912 47.000,80.766 47.000 C 80.581 47.000,80.500 46.846,80.500 46.495 C 80.500 46.199,80.396 45.950,80.250 45.894 C 80.112 45.841,80.000 45.655,80.000 45.481 C 80.000 45.306,79.850 45.035,79.667 44.878 C 79.483 44.721,79.333 44.497,79.333 44.380 C 79.333 44.262,79.221 44.167,79.083 44.167 C 78.915 44.167,78.833 43.998,78.833 43.651 C 78.833 43.276,78.743 43.112,78.500 43.048 C 78.250 42.983,78.167 42.821,78.167 42.397 C 78.167 42.028,78.087 41.833,77.936 41.833 C 77.809 41.833,77.666 41.683,77.618 41.500 C 77.570 41.317,77.412 41.167,77.266 41.167 C 77.073 41.167,77.000 41.006,77.000 40.583 C 77.000 40.190,76.923 40.000,76.763 40.000 C 76.633 40.000,76.476 39.770,76.414 39.489 C 76.352 39.208,76.196 38.937,76.068 38.888 C 75.939 38.838,75.833 38.693,75.833 38.566 C 75.833 38.438,75.729 38.333,75.602 38.333 C 75.469 38.333,75.324 38.084,75.261 37.750 C 75.195 37.401,75.054 37.167,74.909 37.167 C 74.749 37.167,74.667 36.991,74.667 36.651 C 74.667 36.276,74.576 36.112,74.333 36.048 C 74.149 36.000,74.000 35.821,74.000 35.647 C 74.000 35.475,73.887 35.333,73.750 35.333 C 73.575 35.333,73.500 35.157,73.500 34.750 C 73.500 34.278,73.437 34.167,73.167 34.167 C 72.907 34.167,72.833 34.056,72.833 33.661 C 72.833 33.366,72.729 33.116,72.583 33.060 C 72.446 33.008,72.333 32.860,72.333 32.732 C 72.333 32.604,72.183 32.500,72.000 32.500 C 71.730 32.500,71.667 32.389,71.667 31.917 C 71.667 31.509,71.591 31.333,71.417 31.333 C 71.248 31.333,71.167 31.165,71.167 30.818 C 71.167 30.442,71.076 30.278,70.833 30.215 C 70.649 30.167,70.500 29.988,70.500 29.814 C 70.500 29.641,70.387 29.500,70.250 29.500 C 70.075 29.500,70.000 29.324,70.000 28.917 C 70.000 28.444,69.937 28.333,69.667 28.333 C 69.407 28.333,69.333 28.222,69.333 27.828 C 69.333 27.533,69.229 27.283,69.083 27.227 C 68.946 27.174,68.833 27.027,68.833 26.899 C 68.833 26.771,68.683 26.667,68.500 26.667 C 68.230 26.667,68.167 26.556,68.167 26.083 C 68.167 25.676,68.091 25.500,67.917 25.500 C 67.748 25.500,67.667 25.332,67.667 24.984 C 67.667 24.609,67.576 24.445,67.333 24.382 C 67.149 24.333,67.000 24.154,67.000 23.981 C 67.000 23.808,66.887 23.667,66.750 23.667 C 66.582 23.667,66.500 23.498,66.500 23.151 C 66.500 22.776,66.409 22.612,66.167 22.548 C 65.930 22.486,65.833 22.321,65.833 21.975 C 65.833 21.697,65.726 21.449,65.583 21.394 C 65.446 21.341,65.333 21.193,65.333 21.066 C 65.333 20.938,65.183 20.833,65.000 20.833 C 64.730 20.833,64.667 20.722,64.667 20.250 C 64.667 19.843,64.591 19.667,64.417 19.667 C 64.248 19.667,64.167 19.498,64.167 19.151 C 64.167 18.776,64.076 18.612,63.833 18.548 C 63.649 18.500,63.500 18.321,63.500 18.147 C 63.500 17.975,63.387 17.833,63.250 17.833 C 63.082 17.833,63.000 17.665,63.000 17.318 C 63.000 16.942,62.909 16.778,62.667 16.715 C 62.430 16.653,62.333 16.488,62.333 16.142 C 62.333 15.864,62.226 15.615,62.083 15.560 C 61.946 15.508,61.833 15.365,61.833 15.243 C 61.833 15.122,61.683 14.975,61.500 14.917 C 61.266 14.843,61.167 14.664,61.167 14.322 C 61.167 13.999,61.082 13.833,60.917 13.833 C 60.779 13.833,60.667 13.689,60.667 13.514 C 60.667 13.017,60.487 12.667,60.232 12.667 C 60.104 12.667,60.000 12.517,60.000 12.333 C 60.000 12.148,59.889 12.000,59.750 12.000 C 59.582 12.000,59.500 11.832,59.500 11.484 C 59.500 11.109,59.409 10.945,59.167 10.882 C 58.930 10.820,58.833 10.654,58.833 10.309 C 58.833 10.031,58.726 9.782,58.583 9.727 C 58.446 9.674,58.333 9.520,58.333 9.383 C 58.333 9.247,58.183 9.096,58.000 9.048 C 57.774 8.989,57.666 8.820,57.664 8.522 C 57.661 8.087,57.041 7.333,56.685 7.333 C 56.583 7.333,56.500 7.071,56.500 6.750 C 56.500 6.343,56.425 6.167,56.250 6.167 C 56.112 6.167,56.000 6.023,56.000 5.847 C 56.000 5.350,55.820 5.000,55.566 5.000 C 55.438 5.000,55.333 4.850,55.333 4.667 C 55.333 4.481,55.222 4.333,55.083 4.333 C 54.946 4.333,54.833 4.189,54.833 4.014 C 54.833 3.517,54.654 3.167,54.399 3.167 C 54.271 3.167,54.167 3.054,54.167 2.917 C 54.167 2.779,54.058 2.667,53.924 2.667 C 53.779 2.667,53.638 2.433,53.572 2.083 C 53.510 1.749,53.364 1.500,53.231 1.500 C 53.104 1.500,53.000 1.396,53.000 1.268 C 53.000 1.013,52.650 0.833,52.153 0.833 C 51.977 0.833,51.833 0.721,51.833 0.583 C 51.833 0.444,51.685 0.333,51.500 0.333 C 51.317 0.333,51.167 0.258,51.167 0.167 C 51.167 0.062,50.083 0.000,48.250 0.000 C 46.417 0.000,45.333 0.062,45.333 0.167 M103.333 37.167 L 103.333 74.000 127.849 74.000 C 152.224 74.000,152.365 73.998,152.452 73.667 C 152.530 73.367,152.679 73.333,153.941 73.333 C 155.034 73.333,155.365 73.278,155.440 73.083 C 155.507 72.908,155.780 72.833,156.351 72.833 C 157.056 72.833,157.167 72.788,157.167 72.500 C 157.167 72.207,157.278 72.167,158.083 72.167 C 158.787 72.167,159.000 72.109,159.000 71.917 C 159.000 71.731,159.196 71.667,159.766 71.667 C 160.391 71.667,160.547 71.606,160.618 71.333 C 160.683 71.086,160.846 71.000,161.252 71.000 C 161.583 71.000,161.835 70.902,161.894 70.750 C 161.946 70.612,162.179 70.500,162.410 70.500 C 162.650 70.500,162.920 70.357,163.039 70.167 C 163.165 69.964,163.427 69.833,163.707 69.833 C 164.004 69.833,164.167 69.745,164.167 69.583 C 164.167 69.444,164.315 69.333,164.500 69.333 C 164.722 69.333,164.833 69.222,164.833 69.000 C 164.833 68.730,164.944 68.667,165.417 68.667 C 165.802 68.667,166.000 68.588,166.000 68.436 C 166.000 68.309,166.150 68.166,166.333 68.118 C 166.517 68.070,166.667 67.912,166.667 67.766 C 166.667 67.595,166.812 67.500,167.075 67.500 C 167.499 67.500,168.333 66.852,168.333 66.523 C 168.333 66.418,168.483 66.333,168.667 66.333 C 168.852 66.333,169.000 66.222,169.000 66.083 C 169.000 65.946,169.112 65.833,169.250 65.833 C 169.389 65.833,169.500 65.685,169.500 65.500 C 169.500 65.278,169.611 65.167,169.833 65.167 C 170.019 65.167,170.167 65.056,170.167 64.917 C 170.167 64.779,170.279 64.667,170.417 64.667 C 170.556 64.667,170.667 64.519,170.667 64.333 C 170.667 64.111,170.778 64.000,171.000 64.000 C 171.185 64.000,171.333 63.889,171.333 63.750 C 171.333 63.612,171.446 63.500,171.583 63.500 C 171.722 63.500,171.833 63.352,171.833 63.167 C 171.833 62.944,171.944 62.833,172.167 62.833 C 172.350 62.833,172.500 62.729,172.500 62.601 C 172.500 62.473,172.612 62.326,172.750 62.273 C 172.887 62.220,173.000 62.062,173.000 61.922 C 173.000 61.778,173.145 61.667,173.333 61.667 C 173.556 61.667,173.667 61.556,173.667 61.333 C 173.667 61.148,173.778 61.000,173.917 61.000 C 174.083 61.000,174.167 60.833,174.167 60.500 C 174.167 60.154,174.248 60.000,174.432 60.000 C 174.578 60.000,174.737 59.850,174.785 59.667 C 174.833 59.483,174.976 59.333,175.103 59.333 C 175.255 59.333,175.333 59.136,175.333 58.750 C 175.333 58.278,175.397 58.167,175.667 58.167 C 175.889 58.167,176.000 58.056,176.000 57.833 C 176.000 57.648,176.111 57.500,176.250 57.500 C 176.425 57.500,176.500 57.324,176.500 56.917 C 176.500 56.444,176.563 56.333,176.833 56.333 C 177.103 56.333,177.167 56.222,177.167 55.750 C 177.167 55.343,177.242 55.167,177.417 55.167 C 177.591 55.167,177.667 54.991,177.667 54.583 C 177.667 54.111,177.730 54.000,178.000 54.000 C 178.270 54.000,178.333 53.889,178.333 53.417 C 178.333 53.009,178.409 52.833,178.583 52.833 C 178.772 52.833,178.833 52.630,178.833 52.000 C 178.833 51.278,178.878 51.167,179.167 51.167 C 179.437 51.167,179.500 51.056,179.500 50.583 C 179.500 50.187,179.577 50.000,179.740 50.000 C 179.915 50.000,180.011 49.684,180.095 48.833 C 180.176 48.012,180.277 47.667,180.438 47.667 C 180.609 47.667,180.667 47.386,180.667 46.560 C 180.667 45.698,180.731 45.406,180.958 45.240 C 181.205 45.060,181.259 44.688,181.308 42.847 C 181.355 41.117,181.415 40.667,181.600 40.667 C 181.794 40.667,181.833 39.972,181.833 36.583 C 181.833 33.065,181.799 32.500,181.583 32.500 C 181.376 32.500,181.333 32.187,181.333 30.680 C 181.333 28.724,181.261 28.333,180.899 28.333 C 180.719 28.333,180.667 28.016,180.667 26.917 C 180.667 25.769,180.619 25.500,180.417 25.500 C 180.265 25.500,180.167 25.345,180.167 25.104 C 180.167 24.353,179.958 23.667,179.729 23.667 C 179.565 23.667,179.500 23.429,179.500 22.833 C 179.500 22.111,179.456 22.000,179.167 22.000 C 178.897 22.000,178.833 21.889,178.833 21.417 C 178.833 21.009,178.758 20.833,178.583 20.833 C 178.394 20.833,178.333 20.628,178.333 19.984 C 178.333 19.276,178.278 19.121,178.000 19.048 C 177.750 18.983,177.667 18.821,177.667 18.397 C 177.667 18.007,177.590 17.833,177.417 17.833 C 177.279 17.833,177.167 17.721,177.167 17.583 C 177.167 17.444,177.019 17.333,176.833 17.333 C 176.565 17.333,176.500 17.222,176.500 16.768 C 176.500 16.419,176.404 16.166,176.250 16.106 C 176.112 16.054,176.000 15.896,176.000 15.755 C 176.000 15.611,175.855 15.500,175.667 15.500 C 175.397 15.500,175.333 15.389,175.333 14.917 C 175.333 14.531,175.255 14.333,175.103 14.333 C 174.976 14.333,174.833 14.183,174.785 14.000 C 174.737 13.817,174.578 13.667,174.432 13.667 C 174.248 13.667,174.167 13.513,174.167 13.167 C 174.167 12.852,174.081 12.667,173.936 12.667 C 173.809 12.667,173.666 12.517,173.618 12.333 C 173.570 12.150,173.412 12.000,173.266 12.000 C 173.120 12.000,173.000 11.885,173.000 11.745 C 173.000 11.604,172.887 11.446,172.750 11.394 C 172.612 11.341,172.500 11.193,172.500 11.066 C 172.500 10.938,172.350 10.833,172.167 10.833 C 171.978 10.833,171.833 10.722,171.833 10.578 C 171.833 10.438,171.721 10.280,171.583 10.227 C 171.446 10.174,171.333 10.027,171.333 9.899 C 171.333 9.771,171.183 9.667,171.000 9.667 C 170.817 9.667,170.665 9.573,170.664 9.458 C 170.660 9.204,169.941 8.500,169.685 8.500 C 169.583 8.500,169.500 8.396,169.500 8.268 C 169.500 8.013,169.150 7.833,168.653 7.833 C 168.477 7.833,168.333 7.721,168.333 7.583 C 168.333 7.446,168.230 7.333,168.103 7.333 C 167.976 7.333,167.833 7.183,167.785 7.000 C 167.722 6.757,167.558 6.667,167.182 6.667 C 166.835 6.667,166.667 6.585,166.667 6.417 C 166.667 6.279,166.525 6.167,166.353 6.167 C 166.179 6.167,166.000 6.018,165.952 5.833 C 165.888 5.591,165.724 5.500,165.349 5.500 C 165.002 5.500,164.833 5.418,164.833 5.250 C 164.833 5.075,164.657 5.000,164.250 5.000 C 163.778 5.000,163.667 4.937,163.667 4.667 C 163.667 4.397,163.556 4.333,163.083 4.333 C 162.676 4.333,162.500 4.258,162.500 4.083 C 162.500 3.910,162.326 3.833,161.936 3.833 C 161.512 3.833,161.351 3.750,161.285 3.500 C 161.222 3.261,161.058 3.167,160.700 3.167 C 160.411 3.167,160.162 3.062,160.106 2.917 C 160.039 2.740,159.764 2.667,159.172 2.667 C 158.444 2.667,158.333 2.622,158.333 2.333 C 158.333 2.032,158.222 2.000,157.167 2.000 C 156.241 2.000,156.000 1.948,156.000 1.750 C 156.000 1.552,155.761 1.500,154.853 1.500 C 153.846 1.500,153.695 1.459,153.618 1.167 C 153.536 0.852,153.391 0.833,151.033 0.833 C 148.967 0.833,148.519 0.790,148.440 0.583 C 148.355 0.363,145.689 0.333,125.839 0.333 L 103.333 0.333 103.333 37.167 M191.833 37.165 L 191.833 74.000 198.584 74.000 L 205.334 74.000 205.292 37.208 L 205.250 0.417 198.542 0.373 L 191.833 0.330 191.833 37.165 M149.000 14.583 C 149.000 14.782,149.242 14.833,150.182 14.833 C 151.224 14.833,151.375 14.873,151.452 15.167 C 151.527 15.456,151.679 15.500,152.603 15.500 C 153.437 15.500,153.667 15.554,153.667 15.750 C 153.667 15.924,153.841 16.000,154.239 16.000 C 154.664 16.000,154.838 16.085,154.917 16.333 C 154.991 16.568,155.169 16.667,155.516 16.667 C 155.802 16.667,156.051 16.772,156.106 16.917 C 156.166 17.071,156.419 17.167,156.768 17.167 C 157.222 17.167,157.333 17.232,157.333 17.500 C 157.333 17.685,157.444 17.833,157.583 17.833 C 157.721 17.833,157.833 17.946,157.833 18.083 C 157.833 18.258,158.009 18.333,158.417 18.333 C 158.889 18.333,159.000 18.397,159.000 18.667 C 159.000 18.889,159.111 19.000,159.333 19.000 C 159.519 19.000,159.667 19.111,159.667 19.250 C 159.667 19.387,159.779 19.500,159.917 19.500 C 160.056 19.500,160.167 19.648,160.167 19.833 C 160.167 20.056,160.278 20.167,160.500 20.167 C 160.685 20.167,160.833 20.278,160.833 20.417 C 160.833 20.554,160.946 20.667,161.083 20.667 C 161.221 20.667,161.333 20.786,161.333 20.932 C 161.333 21.078,161.483 21.237,161.667 21.285 C 161.850 21.333,162.000 21.476,162.000 21.603 C 162.000 21.730,162.112 21.833,162.250 21.833 C 162.389 21.833,162.500 21.981,162.500 22.167 C 162.500 22.389,162.611 22.500,162.833 22.500 C 163.022 22.500,163.167 22.611,163.167 22.755 C 163.167 22.896,163.279 23.054,163.417 23.106 C 163.556 23.160,163.667 23.407,163.667 23.665 C 163.667 23.988,163.768 24.154,164.000 24.215 C 164.183 24.263,164.333 24.422,164.333 24.568 C 164.333 24.714,164.446 24.833,164.583 24.833 C 164.758 24.833,164.833 25.009,164.833 25.417 C 164.833 25.889,164.897 26.000,165.167 26.000 C 165.437 26.000,165.500 26.111,165.500 26.583 C 165.500 26.991,165.575 27.167,165.750 27.167 C 165.935 27.167,166.000 27.360,166.000 27.911 C 166.000 28.484,166.076 28.696,166.333 28.833 C 166.598 28.975,166.667 29.182,166.667 29.839 C 166.667 30.464,166.728 30.667,166.917 30.667 C 167.115 30.667,167.167 30.907,167.167 31.833 C 167.167 32.889,167.198 33.000,167.500 33.000 C 167.824 33.000,167.833 33.111,167.833 37.064 C 167.833 40.988,167.822 41.131,167.500 41.215 C 167.209 41.291,167.167 41.442,167.167 42.406 C 167.167 43.234,167.104 43.534,166.917 43.606 C 166.731 43.678,166.667 43.972,166.667 44.748 C 166.667 45.654,166.622 45.806,166.333 45.882 C 166.094 45.944,166.000 46.109,166.000 46.467 C 166.000 46.755,165.895 47.005,165.750 47.060 C 165.606 47.116,165.500 47.365,165.500 47.650 C 165.500 47.998,165.401 48.176,165.167 48.250 C 164.937 48.323,164.833 48.502,164.833 48.827 C 164.833 49.092,164.724 49.340,164.583 49.394 C 164.440 49.449,164.333 49.697,164.333 49.975 C 164.333 50.321,164.237 50.486,164.000 50.548 C 163.817 50.596,163.667 50.755,163.667 50.901 C 163.667 51.047,163.554 51.167,163.417 51.167 C 163.279 51.167,163.167 51.308,163.167 51.481 C 163.167 51.654,163.018 51.833,162.833 51.882 C 162.608 51.941,162.500 52.109,162.500 52.401 C 162.500 52.674,162.408 52.833,162.250 52.833 C 162.111 52.833,162.000 52.981,162.000 53.167 C 162.000 53.389,161.889 53.500,161.667 53.500 C 161.478 53.500,161.333 53.611,161.333 53.755 C 161.333 53.896,161.221 54.054,161.083 54.106 C 160.946 54.159,160.833 54.307,160.833 54.434 C 160.833 54.562,160.683 54.667,160.500 54.667 C 160.317 54.667,160.167 54.771,160.167 54.899 C 160.167 55.154,159.816 55.333,159.320 55.333 C 159.144 55.333,159.000 55.446,159.000 55.583 C 159.000 55.721,158.887 55.833,158.750 55.833 C 158.611 55.833,158.500 55.981,158.500 56.167 C 158.500 56.389,158.389 56.500,158.167 56.500 C 157.981 56.500,157.833 56.611,157.833 56.750 C 157.833 56.925,157.657 57.000,157.250 57.000 C 156.778 57.000,156.667 57.063,156.667 57.333 C 156.667 57.603,156.556 57.667,156.083 57.667 C 155.676 57.667,155.500 57.742,155.500 57.917 C 155.500 58.091,155.324 58.167,154.917 58.167 C 154.444 58.167,154.333 58.230,154.333 58.500 C 154.333 58.770,154.222 58.833,153.750 58.833 C 153.343 58.833,153.167 58.909,153.167 59.083 C 153.167 59.282,152.926 59.333,152.000 59.333 C 150.944 59.333,150.833 59.365,150.833 59.667 C 150.833 59.979,150.722 60.000,149.083 60.000 C 147.639 60.000,147.333 60.044,147.333 60.250 C 147.333 60.470,145.528 60.500,132.083 60.500 L 116.833 60.500 116.833 37.417 L 116.833 14.333 132.917 14.333 C 147.102 14.333,149.000 14.363,149.000 14.583 " stroke="none" fill="#141c4c" fill-rule="evenodd"></path></g></svg>